<svg width="450" height="1124" viewBox="0 0 450 1124" fill="none" xmlns="http://www.w3.org/2000/svg">
<path d="M-122.858 96.3087C-184.687 69.2906 -278.329 0 -278.329 0L-281 985.22C-281 985.22 -202.73 937.963 -127.399 909.848C-52.0678 881.733 97.2591 849.431 97.2591 849.431C97.2591 849.431 207.05 839.261 272.498 849.431C337.945 859.6 334.805 876.284 374.542 895.491C523.803 967.639 752 1124 752 1124V211.759C752 211.759 656.634 221.331 616.03 211.759C575.426 202.188 499.827 160.913 482.998 150.744C466.169 140.575 384.426 118.442 356.644 113.058C328.863 107.674 229.222 113.058 229.222 113.058C188.618 113.058 114.04 143.775 40.0928 138.182C-23.9245 133.34 -59.9898 123.781 -122.858 96.3087Z" fill="white" fill-opacity="0.5"/>
</svg>
