<svg width="246" height="265" viewBox="0 0 246 265" fill="none" xmlns="http://www.w3.org/2000/svg">
<path d="M126.462 202.688C117.074 202.688 107.502 200.041 99.1336 194.81C85.0129 185.982 74.758 170.036 71.6899 152.164C70.3706 144.441 70.4243 137.116 71.8663 130.397C72.1194 129.223 72.3649 128.027 72.618 126.815C74.7196 116.667 77.105 105.17 83.9391 97.4074C91.962 88.2876 104.702 76.3375 122.343 77.7105C141.35 79.1985 159.544 90.0057 167.62 104.587C170.412 109.618 172.353 115.432 173.917 123.424C176.893 138.611 176.709 152.356 173.38 164.291C169.384 178.588 160.564 190.477 149.166 196.904C142.316 200.77 134.455 202.688 126.462 202.688Z" stroke="#DDEDFF" stroke-miterlimit="10"/>
<path d="M108.599 215.924C90.7583 210.355 74.2291 198.26 62.6779 181.915C56.4191 173.048 52.1238 163.859 49.9148 154.594C47.4374 144.2 52.2082 135.556 56.8179 127.196C59.4104 122.502 62.0873 117.646 63.5677 112.415C64.7565 108.22 65.6693 103.718 66.5513 99.3532C69.7498 83.5911 73.0479 67.2997 89.8915 60.8262C116.093 50.7553 135.943 52.0976 154.259 65.1751C160.756 69.8079 166.654 75.921 173.373 84.9717C186.152 102.191 194.129 119.487 197.082 136.4C200.618 156.664 196.675 176.799 186.259 191.633C172.629 211.053 147.579 221.745 122.444 218.869C117.788 218.34 113.147 217.343 108.599 215.924Z" stroke="#DDEDFF" stroke-miterlimit="10"/>
<path d="M133.266 263.688C124.76 263.688 116.223 262.722 107.87 260.72C72.9483 252.336 41.0406 226.764 22.5172 192.31C14.5173 177.43 9.62378 162.419 7.95936 147.693C6.24125 132.406 18.1223 122.719 29.6045 113.354C37.8038 106.665 46.287 99.7545 50.053 90.8111C54.4634 80.3337 54.0952 66.957 53.75 54.0329C53.1748 32.848 52.5765 10.9497 74.9426 5.35055C114.812 -4.62062 159.414 4.97472 185.906 29.2507C195.057 37.6341 203.011 48.1882 211.693 63.4595C228.207 92.5139 237.273 120.786 238.639 147.493C240.272 179.462 230.378 209.798 211.509 230.73C192.587 251.738 163.149 263.688 133.266 263.688Z" stroke="#DDEDFF" stroke-miterlimit="10"/>
<path d="M100.176 252.627C83.2484 252.627 67.0184 248.9 53.0511 241.544C22.4166 225.406 1.50015 189.74 1.00926 152.801C0.556721 118.531 16.7177 82.9949 44.2381 57.7601C56.1268 46.8609 68.8516 38.7996 82.0749 33.814C97.7373 27.9003 112.441 32.0269 128.004 36.3912C134.746 38.2857 141.71 40.2339 148.759 41.3C157.357 42.5886 166.515 42.3432 175.382 42.0977C196.329 41.5148 218.013 40.9319 229.464 62.1935C248.064 96.732 249.675 140.229 233.46 170.419C229.426 177.928 218.496 183.964 207.926 189.801C200.931 193.667 194.327 197.31 190.523 200.969C184.402 206.852 179.624 212.528 174.998 218.02C164.544 230.43 155.509 241.153 136.364 247.074C124.337 250.779 112.08 252.627 100.176 252.627Z" stroke="#DDEDFF" stroke-miterlimit="10"/>
</svg>
