<svg width="313" height="337" viewBox="0 0 313 337" fill="none" xmlns="http://www.w3.org/2000/svg">
<path d="M161.092 258.232C149.113 258.232 136.898 254.855 126.22 248.18C108.202 236.915 95.1166 216.567 91.2017 193.763C89.5183 183.907 89.5869 174.561 91.4269 165.987C91.7498 164.489 92.063 162.963 92.386 161.416C95.0677 148.468 98.1115 133.797 106.832 123.892C117.069 112.255 133.326 97.0066 155.837 98.7585C180.089 100.657 203.305 114.447 213.611 133.053C217.173 139.473 219.649 146.892 221.646 157.09C225.443 176.469 225.208 194.008 220.961 209.237C215.862 227.48 204.606 242.65 190.062 250.852C181.322 255.785 171.291 258.232 161.092 258.232Z" stroke="#E8D3BF" stroke-miterlimit="10"/>
<path d="M138.298 275.121C115.533 268.016 94.4419 252.581 79.7024 231.725C71.716 220.411 66.2351 208.686 63.4164 196.863C60.2551 183.601 66.3428 172.571 72.2249 161.903C75.533 155.913 78.9487 149.718 80.8377 143.043C82.3547 137.689 83.5194 131.944 84.6449 126.375C88.7262 106.262 92.9347 85.4743 114.427 77.2139C147.861 64.3632 173.19 66.076 196.562 82.7632C204.852 88.6747 212.378 96.4751 220.952 108.024C237.257 129.996 247.436 152.067 251.204 173.647C255.716 199.505 250.685 225.197 237.394 244.125C220.002 268.906 188.037 282.55 155.964 278.88C150.024 278.204 144.102 276.932 138.298 275.121Z" stroke="#E8D3BF" stroke-miterlimit="10"/>
<path d="M169.774 336.069C158.92 336.069 148.027 334.836 137.369 332.282C92.8076 321.584 52.0927 288.954 28.4566 244.989C18.2485 226.002 12.0043 206.849 9.88044 188.057C7.6881 168.551 22.8485 156.19 37.5 144.24C47.9625 135.705 58.7872 126.887 63.5927 115.475C69.2204 102.106 68.7506 85.0369 68.3102 68.5454C67.5761 41.5131 66.8127 13.5706 95.3523 6.4259C146.226 -6.29749 203.139 5.94633 236.944 36.9229C248.62 47.6203 258.77 61.0876 269.849 80.5739C290.921 117.648 302.489 153.724 304.231 187.803C306.316 228.596 293.69 267.304 269.614 294.014C245.469 320.821 207.905 336.069 169.774 336.069Z" stroke="#E8D3BF" stroke-miterlimit="10"/>
<path d="M127.551 321.956C105.95 321.956 85.2407 317.199 67.4181 307.813C28.3279 287.221 1.6382 241.71 1.01181 194.575C0.434368 150.846 21.056 105.501 56.1726 73.3015C71.3428 59.3939 87.5798 49.1075 104.453 42.7458C124.439 35.1999 143.201 40.4654 163.059 46.0343C171.662 48.4518 180.549 50.9377 189.543 52.2981C200.515 53.9424 212.201 53.6292 223.515 53.316C250.243 52.5722 277.912 51.8283 292.524 78.9585C316.258 123.03 318.314 178.534 297.623 217.056C292.475 226.638 278.529 234.34 265.042 241.789C256.116 246.721 247.689 251.37 242.835 256.039C235.024 263.546 228.927 270.788 223.025 277.796C209.685 293.631 198.156 307.314 173.727 314.87C158.381 319.597 142.741 321.956 127.551 321.956Z" stroke="#E8D3BF" stroke-miterlimit="10"/>
</svg>
