<svg width="92" height="101" viewBox="0 0 92 101" fill="none" xmlns="http://www.w3.org/2000/svg">
<g clip-path="url(#clip0_95_1144)">
<path d="M53.6563 49.4145C54.8183 49.8134 55.8512 50.1671 56.8842 50.5278C57.9206 50.8849 58.957 51.2491 60.1714 51.6722C61.0403 50.0214 61.8918 48.4088 62.8758 46.5466C65.5244 47.5627 68.2324 48.4054 70.7554 49.6226C73.5436 50.9682 74.3671 53.7321 74.7754 56.5273C75.2604 59.8357 75.5501 63.1684 75.9549 66.7646H68.1521C68.2533 68.6824 68.3405 70.3331 68.4383 72.1226H24.1621V66.8617H16.1221C16.7746 62.3118 17.155 58.0115 18.0867 53.8327C18.659 51.2664 20.7039 49.5567 23.3351 48.714C25.3102 48.0829 27.2574 47.3546 29.2918 46.6437C30.2061 48.3534 31.0646 49.9694 31.9719 51.6687C34.1633 50.9058 36.2327 50.1879 38.459 49.4145C40.4272 53.0385 42.3604 56.6417 44.353 60.2172C44.6252 60.7096 45.1172 61.2679 45.6162 61.4067C46.4642 61.6459 47.197 61.4483 47.717 60.4391C49.5909 56.7943 51.5974 53.2154 53.6563 49.418V49.4145ZM65.6536 69.6777C65.2418 66.2305 64.9801 62.8944 64.4008 59.6137C64.0483 57.6127 63.148 55.6464 61.138 54.7309C59.0512 53.7772 56.8318 53.1183 54.6194 52.3137C52.6827 55.9273 50.8751 59.3502 49.0011 62.7349C48.7324 63.2169 48.1916 63.7891 47.6995 63.8689C44.2378 64.4376 43.6865 64.1255 42.0254 61.0356C41.5055 60.068 40.996 59.097 40.476 58.1295C39.4431 56.2117 38.4102 54.3009 37.3528 52.3415C35.3184 53.101 33.3293 53.5553 31.6718 54.554C30.2654 55.4037 28.5765 56.7007 28.1787 58.1225C27.1422 61.8401 26.7479 65.7381 26.0744 69.6777H65.6501H65.6536ZM24.4867 64.1671C24.9857 59.5999 25.2893 55.0569 29.9025 52.4698C29.3058 51.3393 28.7754 50.3405 28.1996 49.255C26.57 49.855 24.9717 50.2607 23.5689 51.0237C22.4487 51.634 21.2169 52.4941 20.6411 53.5657C18.8789 56.8498 19.1615 60.5327 18.7672 64.1706H24.4867V64.1671ZM73.547 64.5382C73.069 61.2541 72.8701 58.1433 72.1198 55.1678C71.1148 51.1832 67.2483 50.9127 64.0762 49.5741C63.4795 50.7081 62.9596 51.7034 62.4396 52.6987C62.6106 52.6432 62.7816 52.5877 62.9526 52.5322C64.153 54.3113 65.6221 55.9724 66.4736 57.904C67.1925 59.5374 67.1436 61.4968 67.5519 63.2863C67.6601 63.7544 68.1696 64.4515 68.5429 64.4827C70.0819 64.618 71.6382 64.5382 73.547 64.5382Z" fill="#E8D3BF"/>
<path d="M55.7606 47.0424C54.1938 46.3801 52.7875 47.254 51.1648 48.1765C47.4903 50.2676 43.6726 50.0873 40.1586 47.684C39.1117 46.9662 38.2323 46.7997 37.004 46.9488C31.5218 47.6216 26.8807 43.734 26.6748 38.4212C26.4654 33.0424 30.796 28.6694 36.1246 28.8774C36.5294 28.8948 37.004 28.8358 37.325 29.0196C39.6631 30.3548 41.9453 29.7409 44.402 29.2728C46.2235 28.926 48.244 29.63 50.1773 29.8138C50.9101 29.8831 51.7616 30.0392 52.3792 29.7618C55.9107 28.1873 59.847 28.7318 62.5863 31.3015C65.371 33.9163 66.226 37.9426 64.7429 41.4799C63.2947 44.9374 59.8714 47.1396 55.7571 47.0424H55.7606ZM46.0037 47.2297C50.3866 47.2713 54.1345 43.5849 54.1519 39.2223C54.1659 34.8249 50.5158 31.2148 46.0456 31.2113C41.6661 31.2079 38.0718 34.7313 38.0055 39.0974C37.9392 43.4774 41.5893 47.1881 46.0037 47.2297ZM54.958 44.5074C58.0428 45.1802 61.0544 43.689 62.4223 40.9146C63.7867 38.1472 63.0434 34.7521 60.6356 32.7615C58.4337 30.9409 55.5164 30.705 53.4784 32.1858C56.811 36.9404 57.0902 39.1633 54.958 44.5074ZM38.7767 31.95C35.5663 30.5837 32.5408 31.2946 30.5517 33.7187C28.6708 36.0075 28.5173 39.3436 30.1853 41.7712C31.7801 44.0947 34.488 45.0657 37.2029 44.2092C34.7951 39.8326 35.6326 35.7925 38.7767 31.9535V31.95Z" fill="#E8D3BF"/>
<path d="M56.6362 8.43054C56.8351 7.68147 56.9643 7.17862 57.1073 6.6827C57.1352 6.58213 57.233 6.4989 57.4249 6.23187C58.395 6.49197 59.4523 6.72432 60.4748 7.06418C69.0662 9.92522 76.192 14.8948 81.8835 21.893C82.5186 22.6733 83.0177 23.2282 84.2739 22.9785C87.0202 22.4271 89.7247 24.0501 90.7332 26.5574C91.794 29.1965 90.9042 32.2448 88.622 33.7915C86.2979 35.366 83.3108 35.1926 81.2066 33.365C79.0953 31.5339 78.5545 28.4682 79.9189 25.9505C80.1876 25.4511 80.5261 24.9899 80.889 24.4281C74.7438 16.2299 66.627 11.0384 56.6362 8.43054ZM85.1114 32.3419C87.1179 32.4356 88.7999 30.8715 88.8523 28.8601C88.9011 26.9319 87.3866 25.2708 85.4743 25.1564C83.5411 25.0419 81.73 26.651 81.6079 28.5966C81.4822 30.5733 83.0456 32.2448 85.1079 32.3419H85.1114Z" fill="#E8D3BF"/>
<path d="M4.04784 62.8146C3.38481 63.0088 2.79158 63.1857 1.9122 63.4458C1.4411 61.2055 0.910679 59.097 0.561718 56.9608C-0.69803 49.203 0.174372 41.6464 2.99048 34.3221C3.36736 33.3372 3.31153 32.7165 2.60663 31.8807C0.676875 29.5918 0.715261 26.6094 2.52288 24.4038C4.26768 22.278 7.39088 21.6121 9.97319 22.812C12.2414 23.8663 13.7559 26.7481 13.2988 29.1306C12.7404 32.0437 10.4443 34.1314 7.42578 34.0308C5.8066 33.9753 5.37389 34.6758 4.94466 35.952C2.07621 44.4415 1.66443 53.0177 3.86638 61.7118C3.94664 62.0343 3.97804 62.3707 4.04784 62.8111V62.8146ZM7.51999 31.6761C9.57188 31.6483 11.219 30.0011 11.1387 28.0486C11.055 25.9401 9.35902 24.3275 7.30015 24.3969C5.3006 24.4628 3.65351 26.117 3.65002 28.0625C3.65002 30.0531 5.41227 31.7038 7.51651 31.6726L7.51999 31.6761Z" fill="#E8D3BF"/>
<path d="M88.2067 39.6627C88.3952 39.5448 88.5278 39.4165 88.6813 39.3714C89.1803 39.2257 89.6863 39.1113 90.6355 38.872C91.0682 41.7643 91.6579 44.5594 91.8708 47.3823C92.3873 54.2766 91.3683 60.9801 88.7232 67.3923C88.3289 68.346 88.6569 68.828 89.1908 69.5077C91.2148 72.0948 90.5203 76.232 87.8054 78.1394C85.1079 80.0294 81.3147 79.3844 79.4513 76.7175C77.4378 73.8357 78.1113 70.0348 81.0914 68.2488C81.9882 67.7113 83.1852 67.3194 84.2006 67.4027C85.7884 67.5345 86.2665 66.7958 86.7341 65.53C89.6758 57.5676 90.3005 49.4631 88.4824 41.1712C88.3742 40.6719 88.2974 40.1655 88.2067 39.6592V39.6627ZM88.2277 73.3259C88.266 71.1862 86.6818 69.5181 84.5915 69.4938C82.5221 69.4696 80.8087 71.1238 80.7739 73.1907C80.739 75.1916 82.3442 76.8805 84.3333 76.9395C86.427 77.0019 88.1962 75.3616 88.2311 73.3259H88.2277Z" fill="#E8D3BF"/>
<path d="M14.8135 20.2388C14.2273 19.6389 13.7527 19.1534 13.0757 18.4598C14.8589 16.9408 16.4501 15.4462 18.1845 14.1353C24.2564 9.54374 31.0821 6.64108 38.6161 5.44812C39.6456 5.28512 40.176 4.99728 40.518 3.91876C41.3938 1.16522 44.0076 -0.308649 46.9458 0.0554839C49.6782 0.395341 51.7999 2.57667 52.0965 5.35795C52.3931 8.1427 50.6867 10.7749 47.9962 11.6904C45.3545 12.5886 42.4233 11.6626 41.1217 9.09985C40.3225 7.52887 39.3838 7.64332 38.0578 7.89647C29.1209 9.58189 21.4891 13.7018 14.8135 20.2423V20.2388ZM42.3779 5.9579C42.3674 8.03172 44.0599 9.72061 46.1188 9.69286C48.0869 9.66859 49.741 7.99704 49.7549 6.02032C49.7689 3.97771 48.0311 2.25415 45.9931 2.29577C43.9622 2.33738 42.3849 3.93263 42.3779 5.9579Z" fill="#E8D3BF"/>
<path d="M34.1002 92.1915C33.8699 92.9821 33.7129 93.5266 33.4826 94.3242C32.2682 93.9393 31.1166 93.6237 30.0069 93.2145C22.1937 90.3257 15.7135 85.5816 10.4337 79.1971C9.85793 78.5035 9.40778 78.0076 8.28761 78.2504C5.36681 78.885 2.63096 77.3314 1.53173 74.6333C0.383653 71.8174 1.17928 68.9945 3.56617 67.4339C5.99843 65.8387 9.01694 66.0918 11.1142 68.0581C13.2952 70.1042 13.6721 73.2288 12.0459 75.8159C11.8645 76.1072 11.6551 76.3812 11.3724 76.7904C17.2768 84.2742 24.7795 89.424 34.1037 92.1915H34.1002ZM10.7722 72.4243C10.7617 70.4302 9.10069 68.828 7.07323 68.8523C5.11207 68.8766 3.36378 70.6071 3.39169 72.504C3.41961 74.5536 5.24816 76.1904 7.46058 76.1453C9.33449 76.1072 10.7862 74.4773 10.7722 72.4243Z" fill="#E8D3BF"/>
<path d="M77.0015 81.0352C77.5564 81.5935 77.9612 81.9992 78.8441 82.887C78.1671 83.3032 77.5075 83.591 76.9981 84.0453C70.1829 90.1697 62.2963 94.0711 53.2059 95.5588C52.6231 95.6525 51.8659 96.2039 51.6461 96.7275C50.4177 99.6857 47.9261 101.382 45.2008 100.931C42.3044 100.452 40.1164 97.9691 39.9978 95.0213C39.8861 92.2713 41.8228 89.8264 44.6703 89.1154C47.5632 88.3941 50.156 89.7535 51.5693 92.7325C51.6426 92.8885 51.7368 93.0342 51.9217 93.3602C61.5565 92.0597 69.8234 87.9051 76.9981 81.0352H77.0015ZM49.7477 95.1704C49.7791 93.1244 48.0692 91.38 46.0452 91.3939C44.1015 91.4077 42.3846 93.1036 42.3637 95.0283C42.3428 97.1021 44.0178 98.7979 46.0766 98.7875C48.0657 98.7736 49.7198 97.1472 49.7477 95.1704Z" fill="#E8D3BF"/>
</g>
<defs>
<clipPath id="clip0_95_1144">
<rect width="92" height="101" fill="white"/>
</clipPath>
</defs>
</svg>
