<svg width="98" height="99" viewBox="0 0 98 99" fill="none" xmlns="http://www.w3.org/2000/svg">
<g clip-path="url(#clip0_95_1135)">
<path d="M58.2543 79.203C59.4177 80.5672 60.4624 81.7887 61.5033 83.0126C63.9147 85.85 66.3502 88.6674 68.7238 91.5349C69.9302 92.9931 70.0451 94.658 69.2291 96.3455C68.3739 98.1131 66.8972 98.9887 64.9367 98.9925C58.2 99.0075 51.4645 98.9975 44.7278 98.9975C40.875 98.9975 37.0235 98.9975 33.1707 98.9962C31.0359 98.9962 29.496 98.0404 28.6635 96.0962C27.9915 94.5252 28.114 92.9505 29.2257 91.6189C32.1475 88.1175 35.1287 84.6637 38.0871 81.1911C38.6151 80.571 39.1432 79.9509 39.7785 79.2055C39.4716 79.2055 39.2821 79.2055 39.0939 79.2055C27.7048 79.2055 16.3169 79.2055 4.92779 79.2018C2.55927 79.2018 0.82993 77.9377 0.217272 75.7267C0.0745295 75.2118 0.0151585 74.6581 0.0151585 74.1232C0.00252642 51.0728 0.00505285 28.025 0 4.97713C0 1.93172 2.27252 -0.00375275 5.03137 5.46327e-06C34.2709 0.0375876 63.5118 0.0325766 92.7514 0.040093C95.3523 0.040093 97.1246 1.25901 97.7852 3.55151C97.9381 4.08393 97.9911 4.66018 97.9911 5.2164C98.0013 28.139 97.9987 51.0615 97.9987 73.9841C97.9987 75.6653 97.5844 77.2149 96.1254 78.2021C95.4091 78.6869 94.4958 78.8936 93.6545 79.1779C93.3893 79.2669 93.0697 79.2018 92.7754 79.2018C81.534 79.2018 70.2927 79.2018 59.0514 79.203C58.8467 79.203 58.6421 79.203 58.2543 79.203ZM45.1245 3.07171V67.0377H94.9468C94.9468 66.6443 94.9468 66.2748 94.9468 65.9065C94.9468 45.6986 94.9468 25.4919 94.9468 5.28405C94.9468 3.62793 94.3809 3.07046 92.7059 3.07046C77.066 3.07046 61.4262 3.07046 45.7851 3.07171C45.5792 3.07171 45.3733 3.07171 45.1245 3.07171ZM42.0182 3.11055C41.7845 3.09552 41.6001 3.07171 41.4144 3.07171C29.333 3.07046 17.2504 3.06921 5.16906 3.07171C3.65953 3.07171 3.06329 3.67178 3.06203 5.16253C3.0595 14.3889 3.0595 23.6153 3.06076 32.8417C3.06076 33.0635 3.08224 33.2852 3.09361 33.5132H7.61464C7.68665 32.9369 7.74349 32.402 7.82055 31.8696C8.46099 27.4199 12.4565 23.8183 16.9978 23.7105C20.5108 23.6266 24.0276 23.6203 27.5418 23.6742C32.3269 23.7469 36.0622 26.7209 37.1751 31.2721C37.3544 32.0074 37.3898 32.7766 37.4896 33.5182H42.0182V3.11055ZM42.0119 36.6363H3.11508V67.0089H7.61464C7.69044 66.3813 7.73086 65.7987 7.8357 65.2287C8.61384 61.0033 12.027 57.6271 16.3763 57.3352C20.3541 57.0684 24.3686 57.1448 28.3578 57.2926C32.534 57.448 36.1089 60.5372 37.1132 64.5748C37.3115 65.3728 37.3772 66.2034 37.5022 67.0026H42.0106V36.635L42.0119 36.6363ZM94.9165 70.1382H3.05571C3.05571 71.4974 3.04939 72.809 3.05697 74.1207C3.06708 75.6239 3.65321 76.1977 5.16527 76.1977C19.0593 76.1977 32.9534 76.1989 46.8487 76.1989C62.217 76.1989 77.5852 76.1989 92.9522 76.1989C94.1611 76.1989 94.8458 75.7091 94.8975 74.6243C94.9683 73.1498 94.9152 71.6691 94.9152 70.1382H94.9165ZM49.0189 95.9934C54.3017 95.9934 59.5857 95.9884 64.8685 95.9984C65.6289 95.9997 66.1721 95.6615 66.5106 95.0351C66.8593 94.3899 66.6635 93.7648 66.2188 93.2362C64.8344 91.5851 63.4385 89.9415 62.0224 88.3167C61.8595 88.1288 61.5386 87.9759 61.2898 87.9759C53.0802 87.9571 44.8718 87.9571 36.6622 87.9684C36.4626 87.9684 36.1999 88.0661 36.0748 88.2102C34.6183 89.8826 33.1707 91.5625 31.7496 93.2662C31.3997 93.6859 31.1975 94.192 31.4072 94.777C31.7155 95.6389 32.2208 95.9934 33.2313 95.9934C38.4939 95.9959 43.7551 95.9934 49.0177 95.9934H49.0189ZM10.7082 67.0277H34.3303C34.5564 63.728 31.7332 60.4596 28.2846 60.3017C24.6718 60.1364 21.0464 60.1977 17.4273 60.2278C15.2887 60.2453 13.5391 61.1598 12.1799 62.8059C11.1782 64.0173 10.7424 65.4141 10.7082 67.0277ZM10.7171 33.4355H34.3594C34.3429 29.6823 31.3517 26.7021 27.6378 26.6946C24.2941 26.6883 20.9491 26.6908 17.6054 26.6946C14.9312 26.6958 12.9429 27.9197 11.5748 30.1383C10.9672 31.1242 10.6956 32.2379 10.7184 33.4355H10.7171ZM59.064 84.9293C58.9402 84.7401 58.8682 84.596 58.7659 84.4758C57.3397 82.8046 55.9161 81.1297 54.4697 79.4761C54.332 79.3183 54.044 79.2168 53.8255 79.2155C50.6258 79.1992 47.426 79.1955 44.2263 79.2205C43.9598 79.2231 43.6238 79.3884 43.4431 79.5876C42.5033 80.6286 41.6014 81.7022 40.6919 82.7696C40.1032 83.4598 39.5246 84.1588 38.8779 84.9293H59.0653H59.064Z" fill="#E8D3BF"/>
<path d="M85.5193 41.7061H54.5782C54.5782 41.4067 54.5706 41.1035 54.5795 40.7991C54.6338 38.9914 54.3988 37.1687 54.9269 35.3873C55.9539 31.9222 58.1582 29.5333 61.6029 28.3745C62.6565 28.02 63.8174 27.9586 64.9366 27.8345C65.2119 27.8045 65.5896 27.9861 65.7993 28.1916C67.0878 29.4493 68.3548 30.7296 69.6003 32.0287C69.9275 32.3695 70.1258 32.3857 70.453 32.04C71.5179 30.9138 72.6889 29.8765 73.6679 28.6839C74.4018 27.7907 75.2545 27.7168 76.241 27.8508C80.8088 28.4734 84.2144 31.4612 85.1328 35.956C85.5105 37.8063 85.4031 39.7556 85.5193 41.7048V41.7061ZM70.0349 39.3434V39.3384C70.4555 39.3384 70.8762 39.3384 71.2968 39.3384C74.8945 39.3384 78.4908 39.3384 82.0885 39.3384C82.9538 39.3384 82.9601 39.3372 82.95 38.4603C82.9335 37.071 82.7365 35.7205 82.0607 34.4753C80.8732 32.2893 79.0479 30.9401 76.6124 30.3901C75.9732 30.2461 75.4793 30.3701 74.9968 30.8887C73.5289 32.4672 71.9878 33.9792 70.501 35.5401C70.1524 35.9059 69.954 35.8972 69.6054 35.5364C68.1224 34.0018 66.5686 32.5323 65.1235 30.9639C64.5033 30.2912 63.8868 30.2661 63.1011 30.454C59.5464 31.3059 56.8482 34.573 57.0301 38.4778C57.0705 39.3347 57.0491 39.3459 57.9169 39.3459C61.9554 39.3459 65.9951 39.3459 70.0336 39.3459L70.0349 39.3434Z" fill="#E8D3BF"/>
<path d="M70.0097 6.66079C74.5535 6.6633 78.4214 10.1133 78.6829 14.5856C78.9318 18.8537 77.2669 22.429 74.0192 25.1812C71.3917 27.4086 68.1831 27.2545 65.6112 24.9457C63.2124 22.7923 61.8885 20.0488 61.3706 16.9119C60.7024 12.8694 62.5883 9.25396 66.2946 7.47382C67.458 6.9151 68.701 6.6182 70.0085 6.65954L70.0097 6.66079ZM63.7303 15.8433C63.8781 18.3551 65.0011 20.9057 67.1283 22.9739C68.912 24.7077 71.1138 24.6676 72.8924 22.9288C73.3989 22.434 73.8777 21.8891 74.2617 21.299C75.6335 19.1894 76.5519 16.942 76.1704 14.3501C75.698 11.1368 72.742 8.83679 69.3048 9.18255C66.042 9.50951 63.681 12.2442 63.7315 15.8433H63.7303Z" fill="#E8D3BF"/>
<path d="M88.3653 47.1004V50.0343H51.6816V47.1004H88.3653Z" fill="#E8D3BF"/>
<path d="M67.8447 61.3653V55.2983C69.852 56.3067 71.8036 57.2876 73.8576 58.3199C71.8201 59.3521 69.8886 60.3305 67.8447 61.3653Z" fill="#E8D3BF"/>
<path d="M22.5026 5.26401C28.2616 5.41308 32.0197 10.979 29.9935 16.4622C29.3215 18.2824 28.2591 19.8396 26.6965 21.0259C24.0059 23.0679 20.7923 23.0479 18.1888 20.8756C15.8354 18.9126 14.5747 16.3557 14.5343 13.2853C14.4926 10.0632 16.5984 7.0479 19.6541 5.9455C20.5661 5.61603 21.5514 5.48574 22.5026 5.26401ZM22.6176 8.41213C20.2099 8.38833 18.0789 10.0708 17.6721 12.4059C17.2666 14.7359 18.1446 16.6827 19.7981 18.2649C21.5742 19.9636 23.4412 19.9298 25.2767 18.2925C26.2203 17.4494 26.8367 16.3871 27.2245 15.2007C28.3349 11.8083 26.0447 8.44721 22.6163 8.41213H22.6176Z" fill="#E8D3BF"/>
<path d="M22.5194 38.9388C27.2527 38.9751 31.0057 43.0039 30.532 47.6616C30.2503 50.4301 29.0452 52.789 26.8143 54.5203C23.8875 56.7915 20.2482 56.5247 17.6219 53.9165C15.6147 51.9234 14.5334 49.5206 14.5283 46.692C14.522 43.1317 17.4122 39.748 20.9593 39.1229C21.4735 39.0327 21.999 38.9989 22.5194 38.9388ZM22.5434 41.9754C20.3479 41.9792 18.4696 43.3384 17.7937 45.4142C17.0724 47.6303 18.2548 50.8423 20.3189 52.2767C21.8449 53.3377 23.5148 53.2951 24.9599 52.1238C26.2067 51.1129 26.9773 49.79 27.36 48.2516C28.1685 44.9995 25.8341 41.9704 22.5434 41.9754Z" fill="#E8D3BF"/>
<path d="M48.9836 74.8159C48.1398 74.8097 47.4829 74.1357 47.4943 73.2889C47.5057 72.4959 48.1941 71.8219 48.9925 71.8219C49.8338 71.8219 50.5184 72.5021 50.5134 73.3314C50.5083 74.1795 49.8451 74.8222 48.9836 74.8159Z" fill="#E8D3BF"/>
</g>
<defs>
<clipPath id="clip0_95_1135">
<rect width="98" height="99" fill="white"/>
</clipPath>
</defs>
</svg>
