<svg width="151" height="104" viewBox="0 0 151 104" fill="none" xmlns="http://www.w3.org/2000/svg">
<g clip-path="url(#clip0_95_1131)">
<path d="M35.0917 47.6508C37.1279 47.2279 39.0424 46.7902 40.9716 46.4415C43.4266 45.9964 45.7745 47.3429 46.5989 49.5908C47.475 51.9759 46.5823 54.5261 44.4022 55.8596C44.227 55.9672 44.0407 56.0525 43.86 56.149C43.8674 56.2454 43.8747 56.3437 43.884 56.4401C45.579 56.4401 47.2851 56.3122 48.9653 56.4698C51.4128 56.6998 53.1208 58.0315 53.8493 60.4611C53.984 60.9099 54.1813 61.088 54.6701 61.1232C55.8007 61.2048 56.9258 61.3662 58.0509 61.5201C60.6589 61.8744 62.649 63.8162 63.0769 66.4722C63.8866 71.4984 64.6594 76.532 65.4599 81.5601C66.3563 87.1928 67.2508 92.8255 68.1804 98.4526C68.7153 101.696 66.6403 104.245 63.6136 103.983C61.76 103.822 60.3841 102.526 59.8381 100.452C58.1523 94.0459 56.4592 87.6416 54.7715 81.2355C54.1518 78.8819 53.5376 76.5265 52.916 74.1729C52.8736 74.0133 52.7869 73.865 52.6062 73.7426C52.6062 77.8934 52.6062 82.0442 52.6062 86.195C52.6062 88.5708 52.6172 90.9448 52.6154 93.3207C52.6154 94.8823 52.0676 95.4369 50.522 95.4684C50.1291 95.4758 49.7344 95.4684 49.2328 95.4684C49.2328 97.5549 49.2328 99.5525 49.2328 101.55C49.2328 103.186 48.6628 104.002 47.5267 103.994C46.3592 103.987 45.8593 103.251 45.8593 101.537C45.8593 99.8381 45.8612 98.1373 45.8575 96.4384C45.8575 96.138 45.828 95.8375 45.8114 95.5074H6.80948C6.80948 97.746 6.81686 99.9327 6.80579 102.118C6.80211 103.113 6.28014 103.802 5.46122 103.955C4.37117 104.16 3.46741 103.429 3.44712 102.253C3.41577 100.369 3.43606 98.4823 3.43606 96.5979C3.43606 96.2641 3.43606 95.9284 3.43606 95.4666C2.85138 95.4666 2.34048 95.4851 1.83326 95.4629C0.662065 95.4091 0.0497207 94.7748 0.00361041 93.5896C-0.00561164 93.3745 0.00361041 93.1575 0.00361041 92.9405C0.00361041 70.7509 0.00361041 48.5633 0.00361041 26.3737C0.00361041 24.4059 0.494223 24.0053 2.45299 23.8884C5.87437 23.6881 9.04306 24.4133 11.9296 26.2624C12.7743 26.804 13.5028 27.5236 14.3642 28.2266C16.299 26.5351 18.8959 26.741 21.2973 26.2643C22.7673 25.9731 24.2631 25.7283 25.7571 25.6522C28.4536 25.515 30.3866 27.1026 30.9823 29.7474C32.2716 35.458 33.5663 41.1686 34.863 46.8773C34.9164 47.1129 34.9994 47.3429 35.0935 47.6526L35.0917 47.6508ZM50.8817 64.8308C50.8817 64.1241 50.8872 63.5399 50.8798 62.9594C50.8761 62.6812 50.8651 62.4011 50.8226 62.1285C50.6013 60.667 49.8599 59.9474 48.3917 59.8083C47.8126 59.7526 47.226 59.76 46.6432 59.76C37.9155 59.7582 29.1877 59.76 20.4618 59.7582C18.6709 59.7582 18.2688 59.4318 17.8981 57.6791C16.2215 49.7484 14.4988 41.8252 12.8979 33.8797C12.4276 31.5483 11.5146 29.6899 9.30681 28.6383C7.46794 27.7629 5.58111 27.136 3.48401 27.3586V91.9983H49.17V68.2898C48.7403 68.2898 48.3733 68.2898 48.0081 68.2898C41.2169 68.2898 34.4258 68.299 27.6329 68.2712C27.1146 68.2694 26.5115 68.1266 26.1002 67.8335C25.5284 67.4255 25.2868 66.7559 25.569 66.0215C25.9213 65.1108 26.6535 64.8326 27.5554 64.8326C32.5298 64.8345 37.5042 64.8326 42.4785 64.8326C45.2378 64.8326 47.9952 64.8326 50.8817 64.8326V64.8308ZM31.6445 48.4075C31.6629 48.337 31.6832 48.3055 31.6758 48.2795C30.3423 42.3593 29.0143 36.4373 27.6679 30.519C27.4023 29.3505 26.7402 28.8627 25.5044 29.0408C22.8632 29.4228 20.2313 29.8624 17.603 30.3242C16.5572 30.5078 15.9836 31.3851 16.1348 32.4349C16.2529 33.2583 16.3838 34.0818 16.5553 34.8942C17.638 40.0484 18.7336 45.2026 19.8255 50.3549C20.2442 52.332 20.6665 54.3072 21.0797 56.2454C23.376 56.2454 25.6059 56.5514 27.7196 56.1823C32.4874 55.3496 37.198 54.1923 41.927 53.1481C43.1333 52.881 43.7143 52.0668 43.4911 51.0615C43.2698 50.0656 42.4011 49.5926 41.1616 49.8597C36.8162 50.7926 32.4744 51.7496 28.1309 52.6881C26.3787 53.0665 24.6228 53.4263 22.8116 53.8065C22.653 52.8309 22.5091 51.9833 22.38 51.132C21.6662 46.4378 20.9432 41.7436 20.2515 37.0456C20.0653 35.7789 20.6075 34.9443 21.6017 34.794C22.5571 34.6475 23.411 35.3616 23.6028 36.5374C23.9938 38.9411 24.3535 41.3504 24.7224 43.7578C25.0249 45.7311 25.3255 47.7045 25.6317 49.7076C27.7177 49.2551 29.6912 48.8285 31.6463 48.4038L31.6445 48.4075ZM52.6781 69.9942C53.4325 69.9942 54.0762 70.022 54.718 69.985C55.205 69.9571 55.3986 70.1259 55.5259 70.6174C56.9295 76.0108 58.3626 81.395 59.7883 86.781C60.93 91.0988 62.0791 95.4146 63.2079 99.7342C63.3536 100.291 63.6339 100.686 64.2167 100.548C64.759 100.422 64.9637 99.9846 64.8604 99.3967C64.711 98.5472 64.6207 97.6866 64.4842 96.8353C62.9035 86.9127 61.3192 76.9901 59.733 67.0675C59.567 66.0289 59.0118 65.2629 57.9863 65.0292C56.8041 64.7603 55.5904 64.6305 54.2883 64.4246C54.2883 65.1683 54.3971 65.8063 54.2569 66.3794C54.1149 66.9581 53.8493 67.7871 53.4196 67.9615C52.3314 68.4029 52.6043 69.1244 52.6763 69.9942H52.6781Z" fill="#E8D3BF"/>
<path d="M76.3768 85.2046H150.981V88.6061H76.3565C76.3565 90.6555 76.3565 92.5937 76.3565 94.5318C76.3602 97.0357 76.3712 99.5376 76.3675 102.041C76.3657 103.251 75.6759 104.015 74.6412 103.993C73.6268 103.97 73.0163 103.256 73.0163 102.054C73.0144 88.9214 73.0052 75.7883 73.0199 62.6552C73.0236 58.5601 76.0522 54.5354 79.966 53.328C80.2279 53.2464 80.4935 53.1703 80.8642 53.059C78.2009 49.9877 77.3672 46.5268 78.6159 42.7006C79.4864 40.0373 81.2534 38.075 83.7636 36.8008C88.762 34.2636 95.0182 36.467 97.451 41.5655C100.024 46.9553 97.4565 54.0661 90.6322 56.008C92.2996 57.3675 93.9116 58.6825 95.5955 60.0549C96.1378 59.3353 96.6597 58.6639 97.1614 57.9777C98.506 56.136 99.8432 54.2869 101.18 52.4414C103.48 49.2681 107.261 48.1756 111.103 49.4665C114.766 50.698 118.461 51.8312 122.142 53.0015C122.428 53.0924 122.725 53.1444 123.079 53.2278C123.57 51.9889 124.02 50.7778 124.527 49.5926C125.457 47.4189 127.474 46.2468 129.861 46.4471C131.842 46.614 133.719 48.1534 134.12 50.2399C134.313 51.2526 134.112 52.3672 133.95 53.4133C133.849 54.0624 133.483 54.6689 133.177 55.4423C139.162 56.3567 145.061 57.2581 151 58.165V61.6203C144.622 60.6577 138.303 59.7044 131.853 58.7307C130.411 62.3511 128.948 66.0271 127.434 69.8273H151V73.2975C147.98 73.2975 145.009 73.2975 142.04 73.2975C136.667 73.3012 131.292 73.3012 125.919 73.3197C125.602 73.3197 125.243 73.3976 124.973 73.559C123.354 74.529 121.729 74.5586 119.951 73.9336C112.946 71.4743 105.9 69.1318 98.9099 66.6354C97.7443 66.2199 96.7225 65.3186 95.7228 64.5285C92.9672 62.3548 90.2301 60.157 87.5391 57.9035C85.3812 56.0952 83.0056 55.7446 80.4917 56.8092C77.8726 57.9183 76.4339 60.0568 76.4044 62.8926C76.3251 70.2762 76.3786 77.6615 76.3786 85.2027L76.3768 85.2046ZM121.762 56.5199C121.299 56.366 120.952 56.2491 120.604 56.1378C117.009 54.9898 113.403 53.877 109.823 52.6863C107.503 51.9147 105.423 52.4897 103.947 54.4593C102.394 56.531 100.85 58.6083 99.3028 60.6837C98.3363 61.9801 98.6296 62.9761 100.148 63.501C107.134 65.9121 114.124 68.3213 121.113 70.725C122.625 71.2443 123.341 70.9049 123.928 69.4341C125.331 65.9158 126.74 62.3993 128.142 58.8791C129.031 56.6479 129.942 54.4241 130.778 52.1725C131.246 50.9076 130.407 49.7707 129.14 49.8541C128.308 49.9079 127.847 50.4235 127.546 51.184C126.132 54.7654 124.691 58.3375 123.262 61.9133C122.568 63.6475 121.88 65.3816 121.174 67.1529C116.863 65.6635 112.658 64.2224 108.464 62.7535C107.372 62.3715 106.894 61.4497 107.208 60.5242C107.538 59.5486 108.462 59.1721 109.635 59.5635C111.207 60.0883 112.771 60.6318 114.337 61.1696C115.95 61.7242 117.564 62.2806 119.23 62.8537C120.091 60.7004 120.91 58.6472 121.76 56.5218L121.762 56.5199ZM88.2806 39.1989C84.5106 39.1915 81.5171 42.146 81.495 45.8925C81.4729 49.7503 84.4866 52.8142 88.2806 52.7938C92.0358 52.7734 95.0016 49.7948 95.0164 46.0316C95.033 42.1924 92.0875 39.2064 88.2787 39.1989H88.2806Z" fill="#E8D3BF"/>
<path d="M33.9335 10.2676C33.9354 15.9058 29.4073 20.4944 23.8354 20.4999C18.1749 20.5055 13.6174 15.9541 13.6118 10.2935C13.6063 4.64601 18.1103 0.0389509 23.6712 2.38261e-06C29.352 -0.0389462 33.9298 4.54214 33.9335 10.2676ZM23.7782 3.44602C20.1171 3.41264 17.0037 6.49513 16.9686 10.186C16.9336 13.9436 20.0451 17.0724 23.8317 17.0873C27.4689 17.1021 30.5435 13.9974 30.5785 10.2769C30.6136 6.52666 27.5795 3.4794 23.7782 3.44417V3.44602Z" fill="#E8D3BF"/>
</g>
<defs>
<clipPath id="clip0_95_1131">
<rect width="151" height="104" fill="white"/>
</clipPath>
</defs>
</svg>
